# xmcd
#
# Track frame offsets: 
#        150
#        23271
#        41954
#        55452
#        69304
#        83300
#        96407
#        108703
#        123978
#        137649
#        152272
#        165514
#        179664
#        193385
#        206801
#        219629
#        235354
#        248578
#
# Disc length: 3510 seconds
#
# Revision: 2
# Processed by: cddbd v1.5.2PL0 Copyright (c) Steve Scherf et al.
# Submitted via: ExactAudioCopyFreeDBPlugin 1.0
#
DISCID=fc0db412
DTITLE=Various Artist - Jazz - CD2
DYEAR=2005
DGENRE=Jazz
TTITLE0=Charly Parker - Round Midnight
TTITLE1=Nina Simone - I loves You Porgy
TTITLE2=Dizzy Gillespie - Good Balt
TTITLE3=Miles Davis - Moon Dreams
TTITLE4=Ella Fitzgerald - Basin Street Blues
TTITLE5=Fats Waller - It's A Sin To Tell A Lie
TTITLE6=Duke Ellington - Mood Indigo
TTITLE7=Lena Horne - How Long Has This Been Going On?
TTITLE8=Louis Armstrong - Struttin' With Some Barbecue
TTITLE9=Woody Herman - Fat It
TTITLE10=Thelonious Monk - Straight No Chaser
TTITLE11=Sidney Bechet - Indian Summer
TTITLE12=Teddy Wilson - Jumpin' On The Blacks And Whites
TTITLE13=Red Norvo - I Was Doing All Right
TTITLE14=Sarah Vaughan - East Of The Sun
TTITLE15=Fletcher Henderson - harlem Madness
TTITLE16=Harry James - One O'Clock Jump
TTITLE17=Nat King Cole - Frim Fram Sauce
EXTD=YEAR: 2005
EXTT0=
EXTT1=
EXTT2=
EXTT3=
EXTT4=
EXTT5=
EXTT6=
EXTT7=
EXTT8=
EXTT9=
EXTT10=
EXTT11=
EXTT12=
EXTT13=
EXTT14=
EXTT15=
EXTT16=
EXTT17=
PLAYORDER=
